HIERARCHY
ROOT root
{
	OFFSET 0.00 0.00 0.00
	CHANNELS 6 Xposition Yposition Zposition Zrotation Xrotation Yrotation
	JOINT lowerback
	{
		OFFSET 0 0 0
		CHANNELS 6 Xposition Yposition Zposition Zrotation Xrotation Yrotation
		JOINT upperback
		{
			OFFSET -0.214371 12.3768 -1.12219
			CHANNELS 6 Xposition Yposition Zposition Zrotation Xrotation Yrotation
			JOINT thorax
			{
				OFFSET -0.00137213 12.3873 0.296195
				CHANNELS 6 Xposition Yposition Zposition Zrotation Xrotation Yrotation
				JOINT lowerneck
				{
					OFFSET 0.0883157 12.5016 0.82912
					CHANNELS 6 Xposition Yposition Zposition Zrotation Xrotation Yrotation
					JOINT upperneck
					{
						OFFSET -1 10.1794 0.943522
						CHANNELS 6 Xposition Yposition Zposition Zrotation Xrotation Yrotation
						JOINT head
						{
							OFFSET 0.667525 10.2797 -1.57149
							CHANNELS 6 Xposition Yposition Zposition Zrotation Xrotation Yrotation
							End Site
							{
								OFFSET 0 0 0
							}
						}
					}
				}
				JOINT lclavicle
				{
					OFFSET 0.0883157 12.5016 0.82912
					CHANNELS 6 Xposition Yposition Zposition Zrotation Xrotation Yrotation
					JOINT lhumerus
					{
						OFFSET 20.61 4.45006 1.43784
						CHANNELS 6 Xposition Yposition Zposition Zrotation Xrotation Yrotation
						JOINT lradius
						{
							OFFSET 0 -30.3438 0
							CHANNELS 6 Xposition Yposition Zposition Zrotation Xrotation Yrotation
							JOINT lwrist
							{
								OFFSET 0 -18.964 0
								CHANNELS 6 Xposition Yposition Zposition Zrotation Xrotation Yrotation
								JOINT lhand
								{
									OFFSET 0 -9.48199 0
									CHANNELS 6 Xposition Yposition Zposition Zrotation Xrotation Yrotation
									JOINT lfingers
									{
										OFFSET 0 -3.17138 0
										CHANNELS 6 Xposition Yposition Zposition Zrotation Xrotation Yrotation
										End Site
										{
											OFFSET 0 -2.55685 0
										}
									}
								}
								JOINT lthumb
								{
									OFFSET 0 -9.48199 0
									CHANNELS 6 Xposition Yposition Zposition Zrotation Xrotation Yrotation
									End Site
									{
										OFFSET 0 -3.67114 0
									}
								}
							}
						}
					}
				}
				JOINT rclavicle
				{
					OFFSET 0.0883157 12.5016 0.82912
					CHANNELS 6 Xposition Yposition Zposition Zrotation Xrotation Yrotation
					JOINT rhumerus
					{
						OFFSET -20.61 4.45 1.44
						CHANNELS 6 Xposition Yposition Zposition Zrotation Xrotation Yrotation
						JOINT rradius
						{
							OFFSET 0 -29.5102 0
							CHANNELS 6 Xposition Yposition Zposition Zrotation Xrotation Yrotation
							JOINT rwrist
							{
								OFFSET 0 -19.2342 0
								CHANNELS 6 Xposition Yposition Zposition Zrotation Xrotation Yrotation
								JOINT rhand
								{
									OFFSET 0 -9.61712 0
									CHANNELS 6 Xposition Yposition Zposition Zrotation Xrotation Yrotation
									JOINT rfingers
									{
										OFFSET 0 -3.29215 0
										CHANNELS 6 Xposition Yposition Zposition Zrotation Xrotation Yrotation
										End Site
										{
											OFFSET 0 -2.557 0
										}
									}
								}
								JOINT rthumb
								{
									OFFSET 0 -9.61712 0
									CHANNELS 6 Xposition Yposition Zposition Zrotation Xrotation Yrotation
									End Site
									{
										OFFSET 0 -3.671 0
									}
								}
							}
						}
					}
				}
			}
		}
	}
	JOINT rfemur
	{
		OFFSET -8.46272 -9.62775 4.76248
		CHANNELS 6 Xposition Yposition Zposition Zrotation Xrotation Yrotation
		JOINT rtibia
		{
			OFFSET 1.00552e-005 -38.0331 0
			CHANNELS 6 Xposition Yposition Zposition Zrotation Xrotation Yrotation
			JOINT rfoot
			{
				OFFSET 1.14428e-005 -43.2815 0
				CHANNELS 6 Xposition Yposition Zposition Zrotation Xrotation Yrotation
				JOINT rtoes
				{
					OFFSET 0 -14.1868 -3.08763
					CHANNELS 6 Xposition Yposition Zposition Zrotation Xrotation Yrotation
					End Site
					{
						OFFSET 0 -7.27332 0
					}
				}
			}
		}
	}
	JOINT lfemur
	{
		OFFSET 9.10607 -9.62778 4.76249
		CHANNELS 6 Xposition Yposition Zposition Zrotation Xrotation Yrotation
		JOINT ltibia
		{
			OFFSET -1.01399e-005 -38.3535 0
			CHANNELS 6 Xposition Yposition Zposition Zrotation Xrotation Yrotation
			JOINT lfoot
			{
				OFFSET -1.12937e-005 -42.7176 0
				CHANNELS 6 Xposition Yposition Zposition Zrotation Xrotation Yrotation
				JOINT ltoes
				{
					OFFSET 0 -13.9965 -2.83857
					CHANNELS 6 Xposition Yposition Zposition Zrotation Xrotation Yrotation
					End Site
					{
						OFFSET 0 -7.16348 0
					}
				}
			}
		}
	}
}
MOTION
Frames: 7
Frame Time: 0.00833333
9.24979	95.2175	52.5226	-6.7882	-1.96112	5.23155	0 0 0 1.74249	-7.3474	-2.61683	-0.214371 12.3768 -1.12219 5.12563	-0.280286	-3.96016	-0.00137213 12.3873 0.296195 3.8966	4.06682	-2.03171	0.0883157 12.5016 0.82912 -0.611927	-5.24492	-0.601529	-1 10.1794 0.943522 3.98088	-5.81125	-0.7816	0.667525 10.2797 -1.57149 1.3394	-0.901291	-0.462963	0.0883157 12.5016 0.82912 -15	0	-0	20.61 4.45006 1.43784 11.5212	5.17913	-167.804	0 -30.3438 0 -0	26.536	-0	0 -18.964 0 1.34986e-014	-2.68676e-015	-112.514	0 -9.48199 0 1.22245	4.37968	-2.58917e-014	0 -3.17138 0 -0	7.12502	-0	0 -9.48199 0 25	15	-1.36605e-015	0.0883157 12.5016 0.82912 15	0	-0	-20.61 4.45 1.44 -23.3975	3.70085	155.708	0 -29.5102 0 -0	15.0162	-0	0 -19.2342 0 1.87992e-015	-4.77992e-015	132.939	0 -9.61712 0 1.22	4.38	-0	0 -3.29215 0 -0	7.12502	-0	0 -9.61712 0 25	15	-7.97034e-015	-8.46272 -9.62775 4.76248 14.7984	-5.01023	-2.02311	1.00552e-005 -38.0331 0 -0	27.6252	-0	1.14428e-005 -43.2815 0 -15.4407	-79.3064	-15.7004	0 -14.1868 -3.08763 -0	-31.4346	-0	9.10607 -9.62778 4.76249 13.9293	-16.4349	4.80791	-1.01399e-005 -38.3535 0 -0	73.8625	-0	-1.12937e-005 -42.7176 0 1.48541	-60.685	1.70283	0 -13.9965 -2.83857 -0	-38.7664	-0
9.23101	95.1955	52.9562	-6.93953	-2.04013	5.35641	0 0 0 2.02098	-7.39159	-2.34902	-0.214371 12.3768 -1.12219 5.00295	-0.232476	-3.62095	-0.00137213 12.3873 0.296195 3.64793	4.09909	-1.85444	0.0883157 12.5016 0.82912 -0.926831	-5.23503	-0.841612	-1 10.1794 0.943522 4.23722	-5.76094	-1.07904	0.667525 10.2797 -1.57149 1.47584	-0.877816	-0.60513	0.0883157 12.5016 0.82912 -15	0	-0	20.61 4.45006 1.43784 11.9249	5.31027	-167.487	0 -30.3438 0 -0	26.3442	-0	0 -18.964 0 1.34954e-014	-2.69457e-015	-112.583	0 -9.48199 0 1.22245	4.37968	-2.58917e-014	0 -3.17138 0 -0	7.12502	-0	0 -9.48199 0 25	15	-1.36605e-015	0.0883157 12.5016 0.82912 15	0	-0	-20.61 4.45 1.44 -23.1808	3.1971	156.372	0 -29.5102 0 -0	15.0139	-0	0 -19.2342 0 1.91224e-015	-4.81442e-015	133.325	0 -9.61712 0 1.22	4.38	-0	0 -3.29215 0 -0	7.12502	-0	0 -9.61712 0 25	15	-7.97034e-015	-8.46272 -9.62775 4.76248 14.9651	-4.44824	-2.32784	1.00552e-005 -38.0331 0 -0	27.2086	-0	1.14428e-005 -43.2815 0 -14.5925	-79.377	-14.836	0 -14.1868 -3.08763 -0	-31.3983	-0	9.10607 -9.62778 4.76249 13.7442	-17.8559	4.17215	-1.01399e-005 -38.3535 0 -0	74.6022	-0	-1.12937e-005 -42.7176 0 2.64168	-61.6473	3.00054	0 -13.9965 -2.83857 -0	-39.3294	-0
9.21175	95.1723	53.3867	-7.07755	-2.11884	5.48655	0 0 0 2.29748	-7.43156	-2.08279	-0.214371 12.3768 -1.12219 4.86844	-0.187065	-3.28294	-0.00137213 12.3873 0.296195 3.38897	4.12972	-1.67751	0.0883157 12.5016 0.82912 -1.24174	-5.22811	-1.08295	-1 10.1794 0.943522 4.49847	-5.70607	-1.37843	0.667525 10.2797 -1.57149 1.61405	-0.850385	-0.748273	0.0883157 12.5016 0.82912 -15	0	-0	20.61 4.45006 1.43784 12.3489	5.42827	-167.154	0 -30.3438 0 -0	26.1299	-0	0 -18.964 0 1.34904e-014	-2.70666e-015	-112.69	0 -9.48199 0 1.22245	4.37968	-2.58917e-014	0 -3.17138 0 -0	7.12502	-0	0 -9.48199 0 25	15	-1.36605e-015	0.0883157 12.5016 0.82912 15	0	-0	-20.61 4.45 1.44 -22.9617	2.74247	157.215	0 -29.5102 0 -0	15.1358	-0	0 -19.2342 0 1.922e-015	-4.82474e-015	133.441	0 -9.61712 0 1.22	4.38	-0	0 -3.29215 0 -0	7.12502	-0	0 -9.61712 0 25	15	-7.97034e-015	-8.46272 -9.62775 4.76248 15.1248	-3.88287	-2.61793	1.00552e-005 -38.0331 0 -0	26.785	-0	1.14428e-005 -43.2815 0 -13.7903	-79.4359	-14.0189	0 -14.1868 -3.08763 -0	-31.3708	-0	9.10607 -9.62778 4.76249 13.4865	-19.2247	3.50263	-1.01399e-005 -38.3535 0 -0	75.1904	-0	-1.12937e-005 -42.7176 0 3.97819	-62.5141	4.48181	0 -13.9965 -2.83857 -0	-39.7661	-0
9.18903	95.1497	53.8142	-7.19973	-2.19732	5.62044	0 0 0 2.56834	-7.4635	-1.81854	-0.214371 12.3768 -1.12219 4.72224	-0.143802	-2.94616	-0.00137213 12.3873 0.296195 3.12208	4.15728	-1.50103	0.0883157 12.5016 0.82912 -1.55571	-5.22528	-1.32485	-1 10.1794 0.943522 4.76249	-5.65021	-1.67892	0.667525 10.2797 -1.57149 1.75314	-0.819871	-0.892046	0.0883157 12.5016 0.82912 -15	0	-0	20.61 4.45006 1.43784 12.7913	5.53624	-166.809	0 -30.3438 0 -0	25.9014	-0	0 -18.964 0 1.34839e-014	-2.72213e-015	-112.827	0 -9.48199 0 1.22245	4.37968	-2.58917e-014	0 -3.17138 0 -0	7.12502	-0	0 -9.48199 0 25	15	-1.36605e-015	0.0883157 12.5016 0.82912 15	0	-0	-20.61 4.45 1.44 -22.7421	2.33447	158.225	0 -29.5102 0 -0	15.3787	-0	0 -19.2342 0 1.9093e-015	-4.8113e-015	133.29	0 -9.61712 0 1.22	4.38	-0	0 -3.29215 0 -0	7.12502	-0	0 -9.61712 0 25	15	-7.97034e-015	-8.46272 -9.62775 4.76248 15.275	-3.3154	-2.89222	1.00552e-005 -38.0331 0 -0	26.3565	-0	1.14428e-005 -43.2815 0 -13.0412	-79.4836	-13.2564	0 -14.1868 -3.08763 -0	-31.3558	-0	9.10607 -9.62778 4.76249 13.1582	-20.5367	2.80346	-1.01399e-005 -38.3535 0 -0	75.6259	-0	-1.12937e-005 -42.7176 0 5.46851	-63.2865	6.11664	0 -13.9965 -2.83857 -0	-40.0859	-0
9.16502	95.1272	54.2365	-7.30391	-2.27462	5.75592	0 0 0 2.83033	-7.48481	-1.55649	-0.214371 12.3768 -1.12219 4.56466	-0.102674	-2.61047	-0.00137213 12.3873 0.296195 2.84948	4.18074	-1.32503	0.0883157 12.5016 0.82912 -1.86817	-5.22721	-1.5665	-1 10.1794 0.943522 5.02721	-5.59716	-1.97947	0.667525 10.2797 -1.57149 1.89232	-0.787356	-1.03601	0.0883157 12.5016 0.82912 -15	0	-0	20.61 4.45006 1.43784 13.2498	5.63758	-166.453	0 -30.3438 0 -0	25.6671	-0	0 -18.964 0 1.34765e-014	-2.73962e-015	-112.982	0 -9.48199 0 1.22245	4.37968	-2.58917e-014	0 -3.17138 0 -0	7.12502	-0	0 -9.48199 0 25	15	-1.36605e-015	0.0883157 12.5016 0.82912 15	0	-0	-20.61 4.45 1.44 -22.5251	1.9698	159.379	0 -29.5102 0 -0	15.7367	-0	0 -19.2342 0 1.87534e-015	-4.77499e-015	132.884	0 -9.61712 0 1.22	4.38	-0	0 -3.29215 0 -0	7.12502	-0	0 -9.61712 0 25	15	-7.97034e-015	-8.46272 -9.62775 4.76248 15.4132	-2.74833	-3.15007	1.00552e-005 -38.0331 0 -0	25.9255	-0	1.14428e-005 -43.2815 0 -12.3473	-79.5203	-12.5503	0 -14.1868 -3.08763 -0	-31.3576	-0	9.10607 -9.62778 4.76249 12.7624	-21.7896	2.08086	-1.01399e-005 -38.3535 0 -0	75.9094	-0	-1.12937e-005 -42.7176 0 7.08018	-63.9689	7.8694	0 -13.9965 -2.83857 -0	-40.3001	-0
9.14256	95.1091	54.6579	-7.38867	-2.34883	5.89043	0 0 0 3.08103	-7.49414	-1.29669	-0.214371 12.3768 -1.12219 4.39624	-0.0639376	-2.27564	-0.00137213 12.3873 0.296195 2.57307	4.19942	-1.14949	0.0883157 12.5016 0.82912 -2.1788	-5.23403	-1.80706	-1 10.1794 0.943522 5.2906	-5.55075	-2.27893	0.667525 10.2797 -1.57149 2.03096	-0.754073	-1.17964	0.0883157 12.5016 0.82912 -15	0	-0	20.61 4.45006 1.43784 13.7217	5.73597	-166.089	0 -30.3438 0 -0	25.4353	-0	0 -18.964 0 1.34687e-014	-2.75787e-015	-113.144	0 -9.48199 0 1.22245	4.37968	-2.58917e-014	0 -3.17138 0 -0	7.12502	-0	0 -9.48199 0 25	15	-1.36605e-015	0.0883157 12.5016 0.82912 15	0	-0	-20.61 4.45 1.44 -22.3138	1.64454	160.655	0 -29.5102 0 -0	16.2023	-0	0 -19.2342 0 1.82232e-015	-4.71726e-015	132.244	0 -9.61712 0 1.22	4.38	-0	0 -3.29215 0 -0	7.12502	-0	0 -9.61712 0 25	15	-7.97034e-015	-8.46272 -9.62775 4.76248 15.537	-2.18514	-3.39161	1.00552e-005 -38.0331 0 -0	25.4947	-0	1.14428e-005 -43.2815 0 -11.7042	-79.5466	-11.8963	0 -14.1868 -3.08763 -0	-31.38	-0	9.10607 -9.62778 4.76249 12.3043	-22.9828	1.34301	-1.01399e-005 -38.3535 0 -0	76.0435	-0	-1.12937e-005 -42.7176 0 8.77893	-64.5686	9.70322	0 -13.9965 -2.83857 -0	-40.4204	-0
9.12113	95.0961	55.0784	-7.45357	-2.41737	6.02117	0 0 0 3.31915	-7.49132	-1.03906	-0.214371 12.3768 -1.12219 4.21774	-0.0281178	-1.94141	-0.00137213 12.3873 0.296195 2.29428	4.21293	-0.974382	0.0883157 12.5016 0.82912 -2.48745	-5.24535	-2.04562	-1 10.1794 0.943522 5.55069	-5.51454	-2.57609	0.667525 10.2797 -1.57149 2.16852	-0.721339	-1.32238	0.0883157 12.5016 0.82912 -15	0	-0	20.61 4.45006 1.43784 14.204	5.83523	-165.719	0 -30.3438 0 -0	25.2136	-0	0 -18.964 0 1.3461e-014	-2.77577e-015	-113.303	0 -9.48199 0 1.22245	4.37968	-2.58917e-014	0 -3.17138 0 -0	7.12502	-0	0 -9.48199 0 25	15	-1.36605e-015	0.0883157 12.5016 0.82912 15	0	-0	-20.61 4.45 1.44 -22.1118	1.35431	162.021	0 -29.5102 0 -0	16.766	-0	0 -19.2342 0 1.75348e-015	-4.64033e-015	131.401	0 -9.61712 0 1.22	4.38	-0	0 -3.29215 0 -0	7.12502	-0	0 -9.61712 0 25	15	-7.97034e-015	-8.46272 -9.62775 4.76248 15.6444	-1.62986	-3.61792	1.00552e-005 -38.0331 0 -0	25.0662	-0	1.14428e-005 -43.2815 0 -11.1009	-79.5626	-11.2831	0 -14.1868 -3.08763 -0	-31.4263	-0	9.10607 -9.62778 4.76249 11.791	-24.1173	0.599763	-1.01399e-005 -38.3535 0 -0	76.0323	-0	-1.12937e-005 -42.7176 0 10.5325	-65.0941	11.584	0 -13.9965 -2.83857 -0	-40.4582	-0
